PathFileType	4	(x/y/z)	S05_P20_T18
DataRate	CameraRate	NumFrames	NumMarkers	Units	OrigDataRate	OrigDataStartFrame	OrigNumFrames
240	240	9	50	mm	240	1	351
Frame#	Time	Sternum			R.Acromium			L.Acromium			Top.Head			R.ASIS			L.ASIS			R.PSIS			L.PSIS			R.Great.Tro			L.Great.Tro			R.Iliac.Crest			L.Iliac.Crest			V.Sacral			R.Thigh.Upper.Post			R.Thigh.Lower.Ant			R.Thigh.Lower.Post			R.Thigh.Upper.Ant			R.Knee.Lat			R.Knee.Med			R.Shank.Upper.Post			R.Shank.Lower.Ant			R.Shank.Lower.Post			R.Shank.Upper.Ant			R.Ankle.Lat			R.Ankle.Med			R.Heel.Upper			R.Heel.Med			R.Heel.Lat			R.Toe.Lat			R.Toe.Med			R.Toe.Tip			L.Thigh.Upper.Post			L.Thigh.Lower.Ant			L.Thigh.Lower.Post			L.Thigh.Upper.Ant			L.Knee.Lat			L.Shank.Upper.Post			L.Shank.Lower.Ant			L.Shank.Lower.Post			L.Shank.Upper.Ant			L.Ankle.Lat			L.Ankle.Med			L.Heel.Upper			L.Heel.Med			L.Heel.Lat			L.Toe.Lat			L.Toe.Med			L.Toe.Tip			Cervical.Spine			Back			
		X1	Y1	Z1	X2	Y2	Z2	X3	Y3	Z3	X4	Y4	Z4	X5	Y5	Z5	X6	Y6	Z6	X7	Y7	Z7	X8	Y8	Z8	X9	Y9	Z9	X10	Y10	Z10	X11	Y11	Z11	X12	Y12	Z12	X13	Y13	Z13	X14	Y14	Z14	X15	Y15	Z15	X16	Y16	Z16	X17	Y17	Z17	X18	Y18	Z18	X19	Y19	Z19	X20	Y20	Z20	X21	Y21	Z21	X22	Y22	Z22	X23	Y23	Z23	X24	Y24	Z24	X25	Y25	Z25	X26	Y26	Z26	X27	Y27	Z27	X28	Y28	Z28	X29	Y29	Z29	X30	Y30	Z30	X31	Y31	Z31	X32	Y32	Z32	X33	Y33	Z33	X34	Y34	Z34	X35	Y35	Z35	X36	Y36	Z36	X37	Y37	Z37	X38	Y38	Z38	X39	Y39	Z39	X40	Y40	Z40	X41	Y41	Z41	X42	Y42	Z42	X43	Y43	Z43	X44	Y44	Z44	X45	Y45	Z45	X46	Y46	Z46	X47	Y47	Z47	X48	Y48	Z48	X49	Y49	Z49	X50	Y50	Z50	

1	0	NaN	NaN	NaN	-1502.8	1515.1	473.91	-1518.1	1527.8	152.87	-1506.5	1810.6	299.99	NaN	NaN	NaN	NaN	NaN	NaN	-1693.8	1019.7	343.71	-1681.9	1013.2	252.56	-1608.7	927.22	506.61	-1550.8	916.07	115.46	-1591	1085.8	479.61	-1563.2	1071.7	146.02	-1701.9	983.16	311.24	NaN	NaN	NaN	NaN	NaN	NaN	-1583.5	603.07	458.87	-1558.5	686.01	482.24	NaN	NaN	NaN	NaN	NaN	NaN	-1830.4	325.01	428.57	-1790.3	239.94	423.98	-1856.3	255.83	408.26	-1763	311.23	441.8	-1844.7	144.66	404.25	-1823.6	172.36	315.12	-1925.7	113.13	341.46	-1918.4	78.564	313.68	-1921.1	83.465	377.52	-1763.5	42.617	434.57	-1723.4	45.37	314.71	-1660.9	52.878	361.65	-1474.7	682.23	123	-1377.7	636.91	156.28	-1437.1	595.59	140.82	-1405.9	722.68	139.38	-1394.7	520.51	151.7	-1374.4	312.56	152.95	-1290	286.4	153.1	-1345.2	245.31	170.6	-1319.3	350	140.71	-1257.4	129.94	177.89	-1229.9	162.04	260.82	-1285.2	63.417	244.67	-1262	45.039	265.63	-1274.9	38.642	206.28	-1117.2	107.93	133.39	-1088.8	134.6	249.78	-1041.8	170.21	188.41	-1560.9	1554.2	321.03	-1686.6	1282.7	321.09
2	0.0041667	NaN	NaN	NaN	-1497.6	1514.6	473.19	-1512.9	1527	152.09	-1501.6	1810.1	299.05	NaN	NaN	NaN	NaN	NaN	NaN	-1688.3	1019.1	343.34	-1676.4	1012.6	252.18	-1603.4	926.74	506.29	-1544.9	915.48	115.28	-1585.6	1085.3	479.29	-1557.7	1071.2	145.62	-1696.4	982.64	310.86	NaN	NaN	NaN	NaN	NaN	NaN	-1578.4	602.49	458.87	-1553.5	685.43	482.15	NaN	NaN	NaN	NaN	NaN	NaN	-1827.4	326.07	428.63	-1788.3	240.67	424.16	-1853.3	256.83	408.13	-1760.2	311.71	442	-1842.9	146.05	404.24	-1822.1	173.42	315.28	-1924.7	115.24	341.65	-1917.7	80.736	313.75	-1920.2	85.514	377.59	-1763.2	42.647	434.68	-1723.3	45.446	314.76	-1660.8	52.735	361.69	-1468.8	681.87	123.13	-1371.6	636.59	156.14	-1431.3	595.25	141.03	-1399.9	722.24	139.15	-1388.9	519.96	151.74	-1370.3	311.86	152.87	-1286.1	284.94	153.37	-1341.9	244.49	170.64	-1314.8	348.81	140.94	-1255.1	128.47	177.89	-1227.5	160.09	260.96	-1283.9	62.2	243.15	-1260.8	43.954	265.58	-1273.8	37.836	206.11	-1114.6	105.11	134.12	-1086.7	131.16	250.24	-1039.2	166.51	189.35	-1555.6	1553.6	320.24	-1681.2	1282	320.59
3	0.0083333	NaN	NaN	NaN	-1492.3	1514.2	472.42	-1507.5	1526.2	151.27	-1496.5	1809.5	298.06	NaN	NaN	NaN	NaN	NaN	NaN	-1682.6	1018.6	342.94	-1670.6	1012	251.78	-1597.8	926.24	505.95	-1538.7	914.88	115.1	-1580	1084.7	478.94	-1552	1070.6	145.21	-1690.7	982.1	310.45	NaN	NaN	NaN	NaN	NaN	NaN	-1573	601.87	458.87	-1548.3	684.83	482.06	NaN	NaN	NaN	NaN	NaN	NaN	-1824.2	327.18	428.68	-1786.1	241.47	424.35	-1850.1	257.93	408	-1757.3	312.21	442.22	-1841	147.53	404.26	-1820.5	174.54	315.46	-1923.5	117.51	341.83	-1916.9	83.075	313.82	-1919.3	87.71	377.67	-1762.8	42.691	434.79	-1723.1	45.525	314.82	-1660.7	52.59	361.72	-1462.7	681.51	123.26	-1365.4	636.26	155.99	-1425.2	594.9	141.25	-1393.7	721.79	138.9	-1382.9	519.4	151.78	-1366	311.15	152.8	-1282	283.46	153.65	-1338.5	243.65	170.67	-1310.2	347.59	141.19	-1252.7	126.97	177.88	-1225	158.1	261.1	-1282.5	61.046	241.68	-1259.6	42.896	265.54	-1272.7	37.06	205.95	-1111.9	102.16	134.85	-1084.6	127.58	250.71	-1036.5	162.63	190.28	-1550.2	1553	319.42	-1675.6	1281.4	320.06
4	0.0125	NaN	NaN	NaN	-1486.7	1513.7	471.62	-1501.9	1525.4	150.41	-1491.2	1808.9	297.03	NaN	NaN	NaN	NaN	NaN	NaN	-1676.7	1018	342.52	-1664.6	1011.5	251.35	-1592.1	925.72	505.58	-1532.2	914.28	114.92	-1574.1	1084.1	478.58	-1546	1070	144.78	-1684.7	981.55	310.02	NaN	NaN	NaN	NaN	NaN	NaN	-1567.5	601.23	458.87	-1542.8	684.21	481.98	NaN	NaN	NaN	NaN	NaN	NaN	-1820.7	328.35	428.73	-1783.7	242.31	424.55	-1846.8	259.12	407.88	-1754.2	312.75	442.44	-1839.1	149.08	404.29	-1818.7	175.74	315.67	-1922.2	119.95	342.02	-1915.9	85.588	313.88	-1918.3	90.058	377.73	-1762.4	42.752	434.89	-1722.9	45.606	314.88	-1660.5	52.444	361.76	-1456.4	681.14	123.4	-1359	635.93	155.83	-1419	594.56	141.48	-1387.4	721.33	138.62	-1376.7	518.84	151.82	-1361.7	310.46	152.72	-1277.8	281.97	153.93	-1334.9	242.8	170.69	-1305.5	346.36	141.44	-1250.3	125.46	177.86	-1222.5	156.09	261.24	-1281	59.987	240.3	-1258.4	41.887	265.5	-1271.5	36.329	205.81	-1109.3	99.108	135.57	-1082.4	123.89	251.16	-1033.7	158.6	191.2	-1544.5	1552.4	318.56	-1669.8	1280.7	319.5
5	0.016667	NaN	NaN	NaN	-1481	1513.3	470.79	-1496.1	1524.7	149.52	-1485.7	1808.3	295.96	NaN	NaN	NaN	NaN	NaN	NaN	-1670.6	1017.4	342.07	-1658.5	1010.9	250.89	-1586.1	925.19	505.19	-1525.5	913.69	114.73	-1568.1	1083.6	478.19	-1539.8	1069.4	144.34	-1678.6	981	309.55	NaN	NaN	NaN	NaN	NaN	NaN	-1561.7	600.57	458.88	-1537.1	683.58	481.91	NaN	NaN	NaN	NaN	NaN	NaN	-1817	329.56	428.78	-1781.2	243.22	424.76	-1843.4	260.41	407.77	-1750.8	313.32	442.68	-1837	150.71	404.35	-1816.8	177	315.89	-1920.7	122.57	342.2	-1914.9	88.281	313.94	-1917.2	92.564	377.8	-1762	42.836	434.98	-1722.7	45.692	314.93	-1660.4	52.299	361.8	-1449.9	680.79	123.54	-1352.4	635.6	155.66	-1412.6	594.22	141.72	-1380.9	720.89	138.32	-1370.4	518.3	151.84	-1357.2	309.78	152.63	-1273.5	280.48	154.2	-1331.3	241.97	170.7	-1300.6	345.15	141.69	-1247.8	123.97	177.84	-1219.8	154.08	261.39	-1279.5	59.052	239.02	-1257.2	40.949	265.47	-1270.3	35.659	205.7	-1106.6	95.973	136.27	-1080.1	120.12	251.61	-1030.9	154.44	192.07	-1538.7	1551.8	317.66	-1663.9	1280.1	318.92
6	0.020833	NaN	NaN	NaN	-1475.2	1512.8	469.93	-1490.2	1523.9	148.61	-1480.1	1807.8	294.87	NaN	NaN	NaN	NaN	NaN	NaN	-1664.4	1016.9	341.6	-1652.2	1010.4	250.41	-1580	924.65	504.77	-1518.7	913.11	114.54	-1561.9	1083	477.79	-1533.5	1068.9	143.87	-1672.3	980.45	309.06	NaN	NaN	NaN	NaN	NaN	NaN	-1555.7	599.89	458.9	-1531.2	682.94	481.85	NaN	NaN	NaN	NaN	NaN	NaN	-1813.1	330.83	428.82	-1778.4	244.19	424.99	-1839.8	261.81	407.68	-1747.3	313.93	442.94	-1835	152.42	404.44	-1814.7	178.34	316.14	-1919.1	125.36	342.37	-1913.7	91.163	313.98	-1916	95.237	377.86	-1761.7	42.951	435.05	-1722.5	45.785	314.99	-1660.3	52.157	361.84	-1443.4	680.45	123.68	-1345.7	635.26	155.48	-1406.1	593.89	141.96	-1374.2	720.45	137.99	-1364	517.78	151.86	-1352.7	309.13	152.55	-1269.2	279.02	154.47	-1327.6	241.16	170.7	-1295.7	343.95	141.93	-1245.4	122.5	177.8	-1217.2	152.08	261.52	-1278	58.259	237.86	-1256	40.097	265.45	-1269.1	35.06	205.6	-1104	92.775	136.94	-1077.9	116.3	252.04	-1028.1	150.17	192.9	-1532.8	1551.2	316.74	-1657.8	1279.4	318.32
7	0.025	NaN	NaN	NaN	-1469.2	1512.4	469.04	-1484.2	1523.2	147.67	-1474.5	1807.3	293.75	NaN	NaN	NaN	NaN	NaN	NaN	-1658	1016.3	341.1	-1645.8	1009.9	249.91	-1573.8	924.11	504.33	-1511.7	912.56	114.35	-1555.7	1082.5	477.37	-1527.1	1068.3	143.4	-1665.8	979.91	308.54	NaN	NaN	NaN	NaN	NaN	NaN	-1549.5	599.19	458.92	-1525.1	682.3	481.81	NaN	NaN	NaN	NaN	NaN	NaN	-1808.9	332.14	428.86	-1775.5	245.22	425.23	-1836.1	263.31	407.61	-1743.5	314.56	443.21	-1832.8	154.22	404.56	-1812.5	179.75	316.41	-1917.3	128.34	342.53	-1912.4	94.243	314.01	-1914.8	98.084	377.91	-1761.3	43.104	435.11	-1722.3	45.886	315.04	-1660.1	52.023	361.88	-1436.8	680.13	123.81	-1339	634.94	155.28	-1399.6	593.59	142.2	-1367.6	720.03	137.63	-1357.5	517.28	151.86	-1348.1	308.53	152.46	-1264.8	277.59	154.72	-1323.8	240.38	170.69	-1290.8	342.79	142.16	-1242.9	121.08	177.76	-1214.4	150.13	261.65	-1276.5	57.621	236.84	-1254.9	39.346	265.44	-1267.9	34.544	205.54	-1101.5	89.536	137.57	-1075.6	112.46	252.45	-1025.3	145.83	193.66	-1526.8	1550.7	315.79	-1651.6	1278.8	317.7
8	0.029167	NaN	NaN	NaN	-1463.2	1512	468.13	-1478.2	1522.4	146.71	-1468.7	1806.8	292.6	NaN	NaN	NaN	NaN	NaN	NaN	-1651.6	1015.8	340.59	-1639.3	1009.4	249.39	-1567.4	923.55	503.86	-1504.5	912.05	114.15	-1549.3	1081.9	476.92	-1520.5	1067.9	142.91	-1659.3	979.38	308	NaN	NaN	NaN	NaN	NaN	NaN	-1543.2	598.48	458.96	-1518.8	681.66	481.79	NaN	NaN	NaN	NaN	NaN	NaN	-1804.4	333.49	428.9	-1772.3	246.31	425.48	-1832.2	264.93	407.56	-1739.5	315.23	443.5	-1830.5	156.1	404.7	-1810	181.23	316.71	-1915.3	131.51	342.67	-1910.9	97.531	314.03	-1913.4	101.12	377.95	-1761	43.303	435.15	-1722.1	46	315.09	-1660	51.897	361.92	-1430.2	679.84	123.93	-1332.3	634.63	155.07	-1393.1	593.3	142.44	-1360.8	719.64	137.25	-1351	516.82	151.85	-1343.5	307.97	152.36	-1260.4	276.22	154.96	-1320	239.64	170.66	-1285.8	341.67	142.38	-1240.5	119.72	177.7	-1211.7	148.24	261.77	-1274.9	57.145	235.95	-1253.7	38.704	265.43	-1266.7	34.117	205.49	-1099.1	86.279	138.15	-1073.4	108.63	252.83	-1022.5	141.42	194.35	-1520.7	1550.1	314.82	-1645.3	1278.2	317.07
9	0.033333	NaN	NaN	NaN	-1457.1	1511.7	467.2	-1472	1521.8	145.73	-1462.9	1806.3	291.44	NaN	NaN	NaN	NaN	NaN	NaN	-1645.1	1015.2	340.06	-1632.8	1008.9	248.85	-1561	922.99	503.38	-1497.3	911.59	113.94	-1542.9	1081.4	476.46	-1513.9	1067.4	142.41	-1652.7	978.87	307.44	NaN	NaN	NaN	NaN	NaN	NaN	-1536.7	597.76	459.02	-1512.3	681.05	481.81	NaN	NaN	NaN	NaN	NaN	NaN	-1799.7	334.9	428.95	-1769	247.47	425.75	-1828.2	266.66	407.55	-1735.3	315.93	443.8	-1828.2	158.09	404.88	-1807.3	182.79	317.04	-1913.1	134.89	342.81	-1909.3	101.04	314.03	-1911.9	104.35	377.98	-1760.7	43.558	435.16	-1721.8	46.132	315.13	-1659.9	51.783	361.96	-1423.6	679.58	124.04	-1325.5	634.35	154.85	-1386.5	593.04	142.65	-1354.1	719.28	136.84	-1344.5	516.41	151.8	-1338.9	307.48	152.26	-1255.9	274.91	155.17	-1316.1	238.96	170.61	-1280.8	340.61	142.58	-1238	118.43	177.63	-1208.9	146.43	261.87	-1273.4	56.83	235.19	-1252.6	38.175	265.43	-1265.6	33.782	205.48	-1096.7	83.025	138.67	-1071.2	104.83	253.18	-1019.7	136.99	194.96	-1514.5	1549.7	313.83	-1638.9	1277.7	316.41
